<svg xmlns="http://www.w3.org/2000/svg" width="712" height="216" viewBox="0 0 712 216">
<rect x="0" y="0" width="712" height="216" fill="#16161e"/>
<rect x="39" y="27" width="19" height="27" fill="#414868"/>
<rect x="59" y="27" width="19" height="27" fill="#414868"/>
<rect x="79" y="27" width="19" height="27" fill="#414868"/>
<rect x="99" y="27" width="19" height="27" fill="#414868"/>
<rect x="119" y="27" width="19" height="27" fill="#414868"/>
<rect x="139" y="27" width="19" height="27" fill="#414868"/>
<rect x="159" y="27" width="19" height="27" fill="#414868"/>
<rect x="191" y="27" width="4" height="27" fill="#414868"/>
<rect x="195" y="27" width="4" height="27" fill="#414868"/>
<rect x="179" y="27" width="19" height="4" fill="#414868"/>
<rect x="179" y="31" width="19" height="4" fill="#414868"/>
<rect x="219" y="27" width="19" height="27" fill="#414868"/>
<rect x="239" y="27" width="19" height="27" fill="#414868"/>
<rect x="259" y="27" width="19" height="27" fill="#414868"/>
<rect x="279" y="27" width="19" height="27" fill="#414868"/>
<rect x="299" y="27" width="19" height="27" fill="#414868"/>
<rect x="319" y="27" width="19" height="27" fill="#414868"/>
<rect x="351" y="27" width="4" height="27" fill="#414868"/>
<rect x="355" y="27" width="4" height="27" fill="#414868"/>
<rect x="339" y="27" width="19" height="4" fill="#414868"/>
<rect x="339" y="31" width="19" height="4" fill="#414868"/>
<rect x="359" y="27" width="19" height="27" fill="#414868"/>
<rect x="379" y="27" width="19" height="27" fill="#414868"/>
<rect x="411" y="27" width="4" height="27" fill="#414868"/>
<rect x="415" y="27" width="4" height="27" fill="#414868"/>
<rect x="399" y="27" width="19" height="4" fill="#414868"/>
<rect x="399" y="31" width="19" height="4" fill="#414868"/>
<rect x="459" y="27" width="19" height="27" fill="#414868"/>
<rect x="479" y="27" width="19" height="27" fill="#414868"/>
<rect x="511" y="27" width="4" height="27" fill="#414868"/>
<rect x="515" y="27" width="4" height="27" fill="#414868"/>
<rect x="499" y="27" width="19" height="4" fill="#414868"/>
<rect x="499" y="31" width="19" height="4" fill="#414868"/>
<rect x="519" y="27" width="19" height="27" fill="#414868"/>
<rect x="539" y="27" width="19" height="27" fill="#414868"/>
<rect x="571" y="27" width="4" height="27" fill="#414868"/>
<rect x="575" y="27" width="4" height="27" fill="#414868"/>
<rect x="559" y="27" width="19" height="4" fill="#414868"/>
<rect x="559" y="31" width="19" height="4" fill="#414868"/>
<rect x="619" y="27" width="19" height="27" fill="#414868"/>
<rect x="639" y="27" width="19" height="27" fill="#414868"/>
<rect x="671" y="27" width="4" height="27" fill="#414868"/>
<rect x="675" y="27" width="4" height="27" fill="#414868"/>
<rect x="659" y="27" width="19" height="4" fill="#414868"/>
<rect x="659" y="31" width="19" height="4" fill="#414868"/>
<rect x="39" y="55" width="19" height="27" fill="#414868"/>
<rect x="59" y="55" width="19" height="27" fill="#414868"/>
<rect x="79" y="55" width="4" height="27" fill="#414868"/>
<rect x="83" y="55" width="4" height="27" fill="#414868"/>
<rect x="79" y="55" width="19" height="4" fill="#414868"/>
<rect x="79" y="59" width="19" height="4" fill="#414868"/>
<rect x="99" y="55" width="19" height="4" fill="#414868"/>
<rect x="99" y="59" width="19" height="4" fill="#414868"/>
<rect x="99" y="75" width="19" height="4" fill="#414868"/>
<rect x="99" y="79" width="19" height="4" fill="#414868"/>
<rect x="119" y="55" width="19" height="4" fill="#414868"/>
<rect x="119" y="59" width="19" height="4" fill="#414868"/>
<rect x="119" y="75" width="19" height="4" fill="#414868"/>
<rect x="119" y="79" width="19" height="4" fill="#414868"/>
<rect x="139" y="55" width="19" height="4" fill="#414868"/>
<rect x="139" y="59" width="19" height="4" fill="#414868"/>
<rect x="139" y="75" width="19" height="4" fill="#414868"/>
<rect x="139" y="79" width="19" height="4" fill="#414868"/>
<rect x="159" y="55" width="19" height="4" fill="#414868"/>
<rect x="159" y="59" width="19" height="4" fill="#414868"/>
<rect x="159" y="75" width="19" height="4" fill="#414868"/>
<rect x="159" y="79" width="19" height="4" fill="#414868"/>
<rect x="191" y="55" width="4" height="27" fill="#414868"/>
<rect x="195" y="55" width="4" height="27" fill="#414868"/>
<rect x="179" y="75" width="19" height="4" fill="#414868"/>
<rect x="179" y="79" width="19" height="4" fill="#414868"/>
<rect x="199" y="55" width="19" height="27" fill="#414868"/>
<rect x="219" y="55" width="19" height="27" fill="#414868"/>
<rect x="239" y="55" width="4" height="27" fill="#414868"/>
<rect x="243" y="55" width="4" height="27" fill="#414868"/>
<rect x="239" y="55" width="19" height="4" fill="#414868"/>
<rect x="239" y="59" width="19" height="4" fill="#414868"/>
<rect x="259" y="55" width="19" height="4" fill="#414868"/>
<rect x="259" y="59" width="19" height="4" fill="#414868"/>
<rect x="259" y="75" width="19" height="4" fill="#414868"/>
<rect x="259" y="79" width="19" height="4" fill="#414868"/>
<rect x="279" y="55" width="19" height="4" fill="#414868"/>
<rect x="279" y="59" width="19" height="4" fill="#414868"/>
<rect x="279" y="75" width="19" height="4" fill="#414868"/>
<rect x="279" y="79" width="19" height="4" fill="#414868"/>
<rect x="299" y="55" width="19" height="4" fill="#414868"/>
<rect x="299" y="59" width="19" height="4" fill="#414868"/>
<rect x="299" y="75" width="19" height="4" fill="#414868"/>
<rect x="299" y="79" width="19" height="4" fill="#414868"/>
<rect x="319" y="55" width="19" height="4" fill="#414868"/>
<rect x="319" y="59" width="19" height="4" fill="#414868"/>
<rect x="319" y="75" width="19" height="4" fill="#414868"/>
<rect x="319" y="79" width="19" height="4" fill="#414868"/>
<rect x="351" y="55" width="4" height="27" fill="#414868"/>
<rect x="355" y="55" width="4" height="27" fill="#414868"/>
<rect x="339" y="75" width="19" height="4" fill="#414868"/>
<rect x="339" y="79" width="19" height="4" fill="#414868"/>
<rect x="359" y="55" width="19" height="27" fill="#414868"/>
<rect x="379" y="55" width="19" height="27" fill="#414868"/>
<rect x="399" y="55" width="4" height="27" fill="#414868"/>
<rect x="403" y="55" width="4" height="27" fill="#414868"/>
<rect x="411" y="55" width="4" height="27" fill="#414868"/>
<rect x="415" y="55" width="4" height="27" fill="#414868"/>
<rect x="459" y="55" width="19" height="27" fill="#414868"/>
<rect x="479" y="55" width="19" height="27" fill="#414868"/>
<rect x="499" y="55" width="4" height="27" fill="#414868"/>
<rect x="503" y="55" width="4" height="27" fill="#414868"/>
<rect x="511" y="55" width="4" height="27" fill="#414868"/>
<rect x="515" y="55" width="4" height="27" fill="#414868"/>
<rect x="519" y="55" width="4" height="27" fill="#414868"/>
<rect x="523" y="55" width="4" height="27" fill="#414868"/>
<rect x="519" y="75" width="19" height="4" fill="#414868"/>
<rect x="519" y="79" width="19" height="4" fill="#414868"/>
<rect x="539" y="55" width="19" height="27" fill="#414868"/>
<rect x="559" y="55" width="19" height="27" fill="#414868"/>
<rect x="591" y="55" width="4" height="27" fill="#414868"/>
<rect x="595" y="55" width="4" height="27" fill="#414868"/>
<rect x="579" y="55" width="19" height="4" fill="#414868"/>
<rect x="579" y="59" width="19" height="4" fill="#414868"/>
<rect x="599" y="55" width="19" height="27" fill="#414868"/>
<rect x="619" y="55" width="19" height="27" fill="#414868"/>
<rect x="639" y="55" width="4" height="27" fill="#414868"/>
<rect x="643" y="55" width="4" height="27" fill="#414868"/>
<rect x="639" y="55" width="19" height="4" fill="#414868"/>
<rect x="639" y="59" width="19" height="4" fill="#414868"/>
<rect x="671" y="55" width="4" height="27" fill="#414868"/>
<rect x="675" y="55" width="4" height="27" fill="#414868"/>
<rect x="659" y="75" width="19" height="4" fill="#414868"/>
<rect x="659" y="79" width="19" height="4" fill="#414868"/>
<rect x="39" y="83" width="19" height="27" fill="#414868"/>
<rect x="59" y="83" width="19" height="27" fill="#414868"/>
<rect x="79" y="83" width="19" height="27" fill="#414868"/>
<rect x="99" y="83" width="19" height="27" fill="#414868"/>
<rect x="119" y="83" width="19" height="27" fill="#414868"/>
<rect x="151" y="83" width="4" height="27" fill="#414868"/>
<rect x="155" y="83" width="4" height="27" fill="#414868"/>
<rect x="139" y="83" width="19" height="4" fill="#414868"/>
<rect x="139" y="87" width="19" height="4" fill="#414868"/>
<rect x="199" y="83" width="19" height="27" fill="#414868"/>
<rect x="219" y="83" width="19" height="27" fill="#414868"/>
<rect x="239" y="83" width="4" height="27" fill="#414868"/>
<rect x="243" y="83" width="4" height="27" fill="#414868"/>
<rect x="251" y="83" width="4" height="27" fill="#414868"/>
<rect x="255" y="83" width="4" height="27" fill="#414868"/>
<rect x="359" y="83" width="19" height="27" fill="#414868"/>
<rect x="379" y="83" width="19" height="27" fill="#414868"/>
<rect x="399" y="83" width="19" height="27" fill="#414868"/>
<rect x="419" y="83" width="19" height="27" fill="#414868"/>
<rect x="439" y="83" width="19" height="27" fill="#414868"/>
<rect x="459" y="83" width="19" height="27" fill="#414868"/>
<rect x="479" y="83" width="19" height="27" fill="#414868"/>
<rect x="499" y="83" width="4" height="27" fill="#414868"/>
<rect x="503" y="83" width="4" height="27" fill="#414868"/>
<rect x="511" y="83" width="4" height="27" fill="#414868"/>
<rect x="515" y="83" width="4" height="27" fill="#414868"/>
<rect x="539" y="83" width="4" height="27" fill="#414868"/>
<rect x="543" y="83" width="4" height="27" fill="#414868"/>
<rect x="539" y="103" width="19" height="4" fill="#414868"/>
<rect x="539" y="107" width="19" height="4" fill="#414868"/>
<rect x="559" y="83" width="19" height="27" fill="#414868"/>
<rect x="579" y="83" width="19" height="27" fill="#414868"/>
<rect x="599" y="83" width="19" height="27" fill="#414868"/>
<rect x="619" y="83" width="4" height="27" fill="#414868"/>
<rect x="623" y="83" width="4" height="27" fill="#414868"/>
<rect x="619" y="83" width="19" height="4" fill="#414868"/>
<rect x="619" y="87" width="19" height="4" fill="#414868"/>
<rect x="651" y="83" width="4" height="27" fill="#414868"/>
<rect x="655" y="83" width="4" height="27" fill="#414868"/>
<rect x="639" y="103" width="19" height="4" fill="#414868"/>
<rect x="639" y="107" width="19" height="4" fill="#414868"/>
<rect x="39" y="111" width="19" height="27" fill="#414868"/>
<rect x="59" y="111" width="19" height="27" fill="#414868"/>
<rect x="79" y="111" width="4" height="27" fill="#414868"/>
<rect x="83" y="111" width="4" height="27" fill="#414868"/>
<rect x="79" y="111" width="19" height="4" fill="#414868"/>
<rect x="79" y="115" width="19" height="4" fill="#414868"/>
<rect x="99" y="111" width="19" height="4" fill="#414868"/>
<rect x="99" y="115" width="19" height="4" fill="#414868"/>
<rect x="99" y="131" width="19" height="4" fill="#414868"/>
<rect x="99" y="135" width="19" height="4" fill="#414868"/>
<rect x="119" y="111" width="19" height="4" fill="#414868"/>
<rect x="119" y="115" width="19" height="4" fill="#414868"/>
<rect x="119" y="131" width="19" height="4" fill="#414868"/>
<rect x="119" y="135" width="19" height="4" fill="#414868"/>
<rect x="151" y="111" width="4" height="27" fill="#414868"/>
<rect x="155" y="111" width="4" height="27" fill="#414868"/>
<rect x="139" y="131" width="19" height="4" fill="#414868"/>
<rect x="139" y="135" width="19" height="4" fill="#414868"/>
<rect x="199" y="111" width="19" height="27" fill="#414868"/>
<rect x="219" y="111" width="19" height="27" fill="#414868"/>
<rect x="239" y="111" width="4" height="27" fill="#414868"/>
<rect x="243" y="111" width="4" height="27" fill="#414868"/>
<rect x="251" y="111" width="4" height="27" fill="#414868"/>
<rect x="255" y="111" width="4" height="27" fill="#414868"/>
<rect x="359" y="111" width="4" height="27" fill="#414868"/>
<rect x="363" y="111" width="4" height="27" fill="#414868"/>
<rect x="359" y="131" width="19" height="4" fill="#414868"/>
<rect x="359" y="135" width="19" height="4" fill="#414868"/>
<rect x="379" y="111" width="19" height="4" fill="#414868"/>
<rect x="379" y="115" width="19" height="4" fill="#414868"/>
<rect x="379" y="131" width="19" height="4" fill="#414868"/>
<rect x="379" y="135" width="19" height="4" fill="#414868"/>
<rect x="399" y="111" width="19" height="4" fill="#414868"/>
<rect x="399" y="115" width="19" height="4" fill="#414868"/>
<rect x="399" y="131" width="19" height="4" fill="#414868"/>
<rect x="399" y="135" width="19" height="4" fill="#414868"/>
<rect x="419" y="111" width="19" height="4" fill="#414868"/>
<rect x="419" y="115" width="19" height="4" fill="#414868"/>
<rect x="419" y="131" width="19" height="4" fill="#414868"/>
<rect x="419" y="135" width="19" height="4" fill="#414868"/>
<rect x="439" y="111" width="19" height="4" fill="#414868"/>
<rect x="439" y="115" width="19" height="4" fill="#414868"/>
<rect x="439" y="131" width="19" height="4" fill="#414868"/>
<rect x="439" y="135" width="19" height="4" fill="#414868"/>
<rect x="459" y="111" width="19" height="27" fill="#414868"/>
<rect x="479" y="111" width="19" height="27" fill="#414868"/>
<rect x="499" y="111" width="4" height="27" fill="#414868"/>
<rect x="503" y="111" width="4" height="27" fill="#414868"/>
<rect x="511" y="111" width="4" height="27" fill="#414868"/>
<rect x="515" y="111" width="4" height="27" fill="#414868"/>
<rect x="539" y="111" width="19" height="27" fill="#414868"/>
<rect x="559" y="111" width="19" height="27" fill="#414868"/>
<rect x="579" y="111" width="4" height="27" fill="#414868"/>
<rect x="583" y="111" width="4" height="27" fill="#414868"/>
<rect x="579" y="111" width="19" height="4" fill="#414868"/>
<rect x="579" y="115" width="19" height="4" fill="#414868"/>
<rect x="599" y="111" width="19" height="27" fill="#414868"/>
<rect x="619" y="111" width="19" height="27" fill="#414868"/>
<rect x="651" y="111" width="4" height="27" fill="#414868"/>
<rect x="655" y="111" width="4" height="27" fill="#414868"/>
<rect x="639" y="111" width="19" height="4" fill="#414868"/>
<rect x="639" y="115" width="19" height="4" fill="#414868"/>
<rect x="39" y="139" width="19" height="27" fill="#414868"/>
<rect x="59" y="139" width="19" height="27" fill="#414868"/>
<rect x="79" y="139" width="19" height="27" fill="#414868"/>
<rect x="99" y="139" width="19" height="27" fill="#414868"/>
<rect x="119" y="139" width="19" height="27" fill="#414868"/>
<rect x="139" y="139" width="19" height="27" fill="#414868"/>
<rect x="159" y="139" width="19" height="27" fill="#414868"/>
<rect x="191" y="139" width="4" height="27" fill="#414868"/>
<rect x="195" y="139" width="4" height="27" fill="#414868"/>
<rect x="179" y="139" width="19" height="4" fill="#414868"/>
<rect x="179" y="143" width="19" height="4" fill="#414868"/>
<rect x="199" y="139" width="4" height="27" fill="#414868"/>
<rect x="203" y="139" width="4" height="27" fill="#414868"/>
<rect x="199" y="159" width="19" height="4" fill="#414868"/>
<rect x="199" y="163" width="19" height="4" fill="#414868"/>
<rect x="219" y="139" width="19" height="27" fill="#414868"/>
<rect x="239" y="139" width="19" height="27" fill="#414868"/>
<rect x="259" y="139" width="19" height="27" fill="#414868"/>
<rect x="279" y="139" width="19" height="27" fill="#414868"/>
<rect x="299" y="139" width="19" height="27" fill="#414868"/>
<rect x="319" y="139" width="19" height="27" fill="#414868"/>
<rect x="351" y="139" width="4" height="27" fill="#414868"/>
<rect x="355" y="139" width="4" height="27" fill="#414868"/>
<rect x="339" y="139" width="19" height="4" fill="#414868"/>
<rect x="339" y="143" width="19" height="4" fill="#414868"/>
<rect x="459" y="139" width="19" height="27" fill="#414868"/>
<rect x="479" y="139" width="19" height="27" fill="#414868"/>
<rect x="499" y="139" width="4" height="27" fill="#414868"/>
<rect x="503" y="139" width="4" height="27" fill="#414868"/>
<rect x="511" y="139" width="4" height="27" fill="#414868"/>
<rect x="515" y="139" width="4" height="27" fill="#414868"/>
<rect x="519" y="139" width="19" height="27" fill="#414868"/>
<rect x="539" y="139" width="19" height="27" fill="#414868"/>
<rect x="559" y="139" width="4" height="27" fill="#414868"/>
<rect x="563" y="139" width="4" height="27" fill="#414868"/>
<rect x="559" y="139" width="19" height="4" fill="#414868"/>
<rect x="559" y="143" width="19" height="4" fill="#414868"/>
<rect x="591" y="139" width="4" height="27" fill="#414868"/>
<rect x="595" y="139" width="4" height="27" fill="#414868"/>
<rect x="579" y="159" width="19" height="4" fill="#414868"/>
<rect x="579" y="163" width="19" height="4" fill="#414868"/>
<rect x="619" y="139" width="19" height="27" fill="#414868"/>
<rect x="639" y="139" width="19" height="27" fill="#414868"/>
<rect x="671" y="139" width="4" height="27" fill="#414868"/>
<rect x="675" y="139" width="4" height="27" fill="#414868"/>
<rect x="659" y="139" width="19" height="4" fill="#414868"/>
<rect x="659" y="143" width="19" height="4" fill="#414868"/>
<rect x="39" y="167" width="4" height="27" fill="#414868"/>
<rect x="43" y="167" width="4" height="27" fill="#414868"/>
<rect x="39" y="187" width="19" height="4" fill="#414868"/>
<rect x="39" y="191" width="19" height="4" fill="#414868"/>
<rect x="59" y="167" width="19" height="4" fill="#414868"/>
<rect x="59" y="171" width="19" height="4" fill="#414868"/>
<rect x="59" y="187" width="19" height="4" fill="#414868"/>
<rect x="59" y="191" width="19" height="4" fill="#414868"/>
<rect x="79" y="167" width="19" height="4" fill="#414868"/>
<rect x="79" y="171" width="19" height="4" fill="#414868"/>
<rect x="79" y="187" width="19" height="4" fill="#414868"/>
<rect x="79" y="191" width="19" height="4" fill="#414868"/>
<rect x="99" y="167" width="19" height="4" fill="#414868"/>
<rect x="99" y="171" width="19" height="4" fill="#414868"/>
<rect x="99" y="187" width="19" height="4" fill="#414868"/>
<rect x="99" y="191" width="19" height="4" fill="#414868"/>
<rect x="119" y="167" width="19" height="4" fill="#414868"/>
<rect x="119" y="171" width="19" height="4" fill="#414868"/>
<rect x="119" y="187" width="19" height="4" fill="#414868"/>
<rect x="119" y="191" width="19" height="4" fill="#414868"/>
<rect x="139" y="167" width="19" height="4" fill="#414868"/>
<rect x="139" y="171" width="19" height="4" fill="#414868"/>
<rect x="139" y="187" width="19" height="4" fill="#414868"/>
<rect x="139" y="191" width="19" height="4" fill="#414868"/>
<rect x="159" y="167" width="19" height="4" fill="#414868"/>
<rect x="159" y="171" width="19" height="4" fill="#414868"/>
<rect x="159" y="187" width="19" height="4" fill="#414868"/>
<rect x="159" y="191" width="19" height="4" fill="#414868"/>
<rect x="191" y="167" width="4" height="27" fill="#414868"/>
<rect x="195" y="167" width="4" height="27" fill="#414868"/>
<rect x="179" y="187" width="19" height="4" fill="#414868"/>
<rect x="179" y="191" width="19" height="4" fill="#414868"/>
<rect x="219" y="167" width="4" height="27" fill="#414868"/>
<rect x="223" y="167" width="4" height="27" fill="#414868"/>
<rect x="219" y="187" width="19" height="4" fill="#414868"/>
<rect x="219" y="191" width="19" height="4" fill="#414868"/>
<rect x="239" y="167" width="19" height="4" fill="#414868"/>
<rect x="239" y="171" width="19" height="4" fill="#414868"/>
<rect x="239" y="187" width="19" height="4" fill="#414868"/>
<rect x="239" y="191" width="19" height="4" fill="#414868"/>
<rect x="259" y="167" width="19" height="4" fill="#414868"/>
<rect x="259" y="171" width="19" height="4" fill="#414868"/>
<rect x="259" y="187" width="19" height="4" fill="#414868"/>
<rect x="259" y="191" width="19" height="4" fill="#414868"/>
<rect x="279" y="167" width="19" height="4" fill="#414868"/>
<rect x="279" y="171" width="19" height="4" fill="#414868"/>
<rect x="279" y="187" width="19" height="4" fill="#414868"/>
<rect x="279" y="191" width="19" height="4" fill="#414868"/>
<rect x="299" y="167" width="19" height="4" fill="#414868"/>
<rect x="299" y="171" width="19" height="4" fill="#414868"/>
<rect x="299" y="187" width="19" height="4" fill="#414868"/>
<rect x="299" y="191" width="19" height="4" fill="#414868"/>
<rect x="319" y="167" width="19" height="4" fill="#414868"/>
<rect x="319" y="171" width="19" height="4" fill="#414868"/>
<rect x="319" y="187" width="19" height="4" fill="#414868"/>
<rect x="319" y="191" width="19" height="4" fill="#414868"/>
<rect x="351" y="167" width="4" height="27" fill="#414868"/>
<rect x="355" y="167" width="4" height="27" fill="#414868"/>
<rect x="339" y="187" width="19" height="4" fill="#414868"/>
<rect x="339" y="191" width="19" height="4" fill="#414868"/>
<rect x="459" y="167" width="4" height="27" fill="#414868"/>
<rect x="463" y="167" width="4" height="27" fill="#414868"/>
<rect x="459" y="187" width="19" height="4" fill="#414868"/>
<rect x="459" y="191" width="19" height="4" fill="#414868"/>
<rect x="479" y="167" width="19" height="4" fill="#414868"/>
<rect x="479" y="171" width="19" height="4" fill="#414868"/>
<rect x="479" y="187" width="19" height="4" fill="#414868"/>
<rect x="479" y="191" width="19" height="4" fill="#414868"/>
<rect x="511" y="167" width="4" height="27" fill="#414868"/>
<rect x="515" y="167" width="4" height="27" fill="#414868"/>
<rect x="499" y="187" width="19" height="4" fill="#414868"/>
<rect x="499" y="191" width="19" height="4" fill="#414868"/>
<rect x="519" y="167" width="4" height="27" fill="#414868"/>
<rect x="523" y="167" width="4" height="27" fill="#414868"/>
<rect x="519" y="187" width="19" height="4" fill="#414868"/>
<rect x="519" y="191" width="19" height="4" fill="#414868"/>
<rect x="539" y="167" width="19" height="4" fill="#414868"/>
<rect x="539" y="171" width="19" height="4" fill="#414868"/>
<rect x="539" y="187" width="19" height="4" fill="#414868"/>
<rect x="539" y="191" width="19" height="4" fill="#414868"/>
<rect x="571" y="167" width="4" height="27" fill="#414868"/>
<rect x="575" y="167" width="4" height="27" fill="#414868"/>
<rect x="559" y="187" width="19" height="4" fill="#414868"/>
<rect x="559" y="191" width="19" height="4" fill="#414868"/>
<rect x="619" y="167" width="4" height="27" fill="#414868"/>
<rect x="623" y="167" width="4" height="27" fill="#414868"/>
<rect x="619" y="187" width="19" height="4" fill="#414868"/>
<rect x="619" y="191" width="19" height="4" fill="#414868"/>
<rect x="639" y="167" width="19" height="4" fill="#414868"/>
<rect x="639" y="171" width="19" height="4" fill="#414868"/>
<rect x="639" y="187" width="19" height="4" fill="#414868"/>
<rect x="639" y="191" width="19" height="4" fill="#414868"/>
<rect x="671" y="167" width="4" height="27" fill="#414868"/>
<rect x="675" y="167" width="4" height="27" fill="#414868"/>
<rect x="659" y="187" width="19" height="4" fill="#414868"/>
<rect x="659" y="191" width="19" height="4" fill="#414868"/>
<rect x="36" y="24" width="19" height="27" fill="#82aaff"/>
<rect x="56" y="24" width="19" height="27" fill="#82aaff"/>
<rect x="76" y="24" width="19" height="27" fill="#82aaff"/>
<rect x="96" y="24" width="19" height="27" fill="#82aaff"/>
<rect x="116" y="24" width="19" height="27" fill="#82aaff"/>
<rect x="136" y="24" width="19" height="27" fill="#82aaff"/>
<rect x="156" y="24" width="19" height="27" fill="#82aaff"/>
<rect x="188" y="24" width="4" height="27" fill="#82aaff"/>
<rect x="192" y="24" width="4" height="27" fill="#82aaff"/>
<rect x="176" y="24" width="19" height="4" fill="#82aaff"/>
<rect x="176" y="28" width="19" height="4" fill="#82aaff"/>
<rect x="216" y="24" width="19" height="27" fill="#82aaff"/>
<rect x="236" y="24" width="19" height="27" fill="#82aaff"/>
<rect x="256" y="24" width="19" height="27" fill="#82aaff"/>
<rect x="276" y="24" width="19" height="27" fill="#82aaff"/>
<rect x="296" y="24" width="19" height="27" fill="#82aaff"/>
<rect x="316" y="24" width="19" height="27" fill="#82aaff"/>
<rect x="348" y="24" width="4" height="27" fill="#82aaff"/>
<rect x="352" y="24" width="4" height="27" fill="#82aaff"/>
<rect x="336" y="24" width="19" height="4" fill="#82aaff"/>
<rect x="336" y="28" width="19" height="4" fill="#82aaff"/>
<rect x="356" y="24" width="19" height="27" fill="#82aaff"/>
<rect x="376" y="24" width="19" height="27" fill="#82aaff"/>
<rect x="408" y="24" width="4" height="27" fill="#82aaff"/>
<rect x="412" y="24" width="4" height="27" fill="#82aaff"/>
<rect x="396" y="24" width="19" height="4" fill="#82aaff"/>
<rect x="396" y="28" width="19" height="4" fill="#82aaff"/>
<rect x="456" y="24" width="19" height="27" fill="#82aaff"/>
<rect x="476" y="24" width="19" height="27" fill="#82aaff"/>
<rect x="508" y="24" width="4" height="27" fill="#82aaff"/>
<rect x="512" y="24" width="4" height="27" fill="#82aaff"/>
<rect x="496" y="24" width="19" height="4" fill="#82aaff"/>
<rect x="496" y="28" width="19" height="4" fill="#82aaff"/>
<rect x="516" y="24" width="19" height="27" fill="#82aaff"/>
<rect x="536" y="24" width="19" height="27" fill="#82aaff"/>
<rect x="568" y="24" width="4" height="27" fill="#82aaff"/>
<rect x="572" y="24" width="4" height="27" fill="#82aaff"/>
<rect x="556" y="24" width="19" height="4" fill="#82aaff"/>
<rect x="556" y="28" width="19" height="4" fill="#82aaff"/>
<rect x="616" y="24" width="19" height="27" fill="#82aaff"/>
<rect x="636" y="24" width="19" height="27" fill="#82aaff"/>
<rect x="668" y="24" width="4" height="27" fill="#82aaff"/>
<rect x="672" y="24" width="4" height="27" fill="#82aaff"/>
<rect x="656" y="24" width="19" height="4" fill="#82aaff"/>
<rect x="656" y="28" width="19" height="4" fill="#82aaff"/>
<rect x="36" y="52" width="19" height="27" fill="#82aaff"/>
<rect x="56" y="52" width="19" height="27" fill="#82aaff"/>
<rect x="76" y="52" width="4" height="27" fill="#82aaff"/>
<rect x="80" y="52" width="4" height="27" fill="#82aaff"/>
<rect x="76" y="52" width="19" height="4" fill="#82aaff"/>
<rect x="76" y="56" width="19" height="4" fill="#82aaff"/>
<rect x="96" y="52" width="19" height="4" fill="#82aaff"/>
<rect x="96" y="56" width="19" height="4" fill="#82aaff"/>
<rect x="96" y="72" width="19" height="4" fill="#82aaff"/>
<rect x="96" y="76" width="19" height="4" fill="#82aaff"/>
<rect x="116" y="52" width="19" height="4" fill="#82aaff"/>
<rect x="116" y="56" width="19" height="4" fill="#82aaff"/>
<rect x="116" y="72" width="19" height="4" fill="#82aaff"/>
<rect x="116" y="76" width="19" height="4" fill="#82aaff"/>
<rect x="136" y="52" width="19" height="4" fill="#82aaff"/>
<rect x="136" y="56" width="19" height="4" fill="#82aaff"/>
<rect x="136" y="72" width="19" height="4" fill="#82aaff"/>
<rect x="136" y="76" width="19" height="4" fill="#82aaff"/>
<rect x="156" y="52" width="19" height="4" fill="#82aaff"/>
<rect x="156" y="56" width="19" height="4" fill="#82aaff"/>
<rect x="156" y="72" width="19" height="4" fill="#82aaff"/>
<rect x="156" y="76" width="19" height="4" fill="#82aaff"/>
<rect x="188" y="52" width="4" height="27" fill="#82aaff"/>
<rect x="192" y="52" width="4" height="27" fill="#82aaff"/>
<rect x="176" y="72" width="19" height="4" fill="#82aaff"/>
<rect x="176" y="76" width="19" height="4" fill="#82aaff"/>
<rect x="196" y="52" width="19" height="27" fill="#82aaff"/>
<rect x="216" y="52" width="19" height="27" fill="#82aaff"/>
<rect x="236" y="52" width="4" height="27" fill="#82aaff"/>
<rect x="240" y="52" width="4" height="27" fill="#82aaff"/>
<rect x="236" y="52" width="19" height="4" fill="#82aaff"/>
<rect x="236" y="56" width="19" height="4" fill="#82aaff"/>
<rect x="256" y="52" width="19" height="4" fill="#82aaff"/>
<rect x="256" y="56" width="19" height="4" fill="#82aaff"/>
<rect x="256" y="72" width="19" height="4" fill="#82aaff"/>
<rect x="256" y="76" width="19" height="4" fill="#82aaff"/>
<rect x="276" y="52" width="19" height="4" fill="#82aaff"/>
<rect x="276" y="56" width="19" height="4" fill="#82aaff"/>
<rect x="276" y="72" width="19" height="4" fill="#82aaff"/>
<rect x="276" y="76" width="19" height="4" fill="#82aaff"/>
<rect x="296" y="52" width="19" height="4" fill="#82aaff"/>
<rect x="296" y="56" width="19" height="4" fill="#82aaff"/>
<rect x="296" y="72" width="19" height="4" fill="#82aaff"/>
<rect x="296" y="76" width="19" height="4" fill="#82aaff"/>
<rect x="316" y="52" width="19" height="4" fill="#82aaff"/>
<rect x="316" y="56" width="19" height="4" fill="#82aaff"/>
<rect x="316" y="72" width="19" height="4" fill="#82aaff"/>
<rect x="316" y="76" width="19" height="4" fill="#82aaff"/>
<rect x="348" y="52" width="4" height="27" fill="#82aaff"/>
<rect x="352" y="52" width="4" height="27" fill="#82aaff"/>
<rect x="336" y="72" width="19" height="4" fill="#82aaff"/>
<rect x="336" y="76" width="19" height="4" fill="#82aaff"/>
<rect x="356" y="52" width="19" height="27" fill="#82aaff"/>
<rect x="376" y="52" width="19" height="27" fill="#82aaff"/>
<rect x="396" y="52" width="4" height="27" fill="#82aaff"/>
<rect x="400" y="52" width="4" height="27" fill="#82aaff"/>
<rect x="408" y="52" width="4" height="27" fill="#82aaff"/>
<rect x="412" y="52" width="4" height="27" fill="#82aaff"/>
<rect x="456" y="52" width="19" height="27" fill="#82aaff"/>
<rect x="476" y="52" width="19" height="27" fill="#82aaff"/>
<rect x="496" y="52" width="4" height="27" fill="#82aaff"/>
<rect x="500" y="52" width="4" height="27" fill="#82aaff"/>
<rect x="508" y="52" width="4" height="27" fill="#82aaff"/>
<rect x="512" y="52" width="4" height="27" fill="#82aaff"/>
<rect x="516" y="52" width="4" height="27" fill="#82aaff"/>
<rect x="520" y="52" width="4" height="27" fill="#82aaff"/>
<rect x="516" y="72" width="19" height="4" fill="#82aaff"/>
<rect x="516" y="76" width="19" height="4" fill="#82aaff"/>
<rect x="536" y="52" width="19" height="27" fill="#82aaff"/>
<rect x="556" y="52" width="19" height="27" fill="#82aaff"/>
<rect x="588" y="52" width="4" height="27" fill="#82aaff"/>
<rect x="592" y="52" width="4" height="27" fill="#82aaff"/>
<rect x="576" y="52" width="19" height="4" fill="#82aaff"/>
<rect x="576" y="56" width="19" height="4" fill="#82aaff"/>
<rect x="596" y="52" width="19" height="27" fill="#82aaff"/>
<rect x="616" y="52" width="19" height="27" fill="#82aaff"/>
<rect x="636" y="52" width="4" height="27" fill="#82aaff"/>
<rect x="640" y="52" width="4" height="27" fill="#82aaff"/>
<rect x="636" y="52" width="19" height="4" fill="#82aaff"/>
<rect x="636" y="56" width="19" height="4" fill="#82aaff"/>
<rect x="668" y="52" width="4" height="27" fill="#82aaff"/>
<rect x="672" y="52" width="4" height="27" fill="#82aaff"/>
<rect x="656" y="72" width="19" height="4" fill="#82aaff"/>
<rect x="656" y="76" width="19" height="4" fill="#82aaff"/>
<rect x="36" y="80" width="19" height="27" fill="#82aaff"/>
<rect x="56" y="80" width="19" height="27" fill="#82aaff"/>
<rect x="76" y="80" width="19" height="27" fill="#82aaff"/>
<rect x="96" y="80" width="19" height="27" fill="#82aaff"/>
<rect x="116" y="80" width="19" height="27" fill="#82aaff"/>
<rect x="148" y="80" width="4" height="27" fill="#82aaff"/>
<rect x="152" y="80" width="4" height="27" fill="#82aaff"/>
<rect x="136" y="80" width="19" height="4" fill="#82aaff"/>
<rect x="136" y="84" width="19" height="4" fill="#82aaff"/>
<rect x="196" y="80" width="19" height="27" fill="#82aaff"/>
<rect x="216" y="80" width="19" height="27" fill="#82aaff"/>
<rect x="236" y="80" width="4" height="27" fill="#82aaff"/>
<rect x="240" y="80" width="4" height="27" fill="#82aaff"/>
<rect x="248" y="80" width="4" height="27" fill="#82aaff"/>
<rect x="252" y="80" width="4" height="27" fill="#82aaff"/>
<rect x="356" y="80" width="19" height="27" fill="#82aaff"/>
<rect x="376" y="80" width="19" height="27" fill="#82aaff"/>
<rect x="396" y="80" width="19" height="27" fill="#82aaff"/>
<rect x="416" y="80" width="19" height="27" fill="#82aaff"/>
<rect x="436" y="80" width="19" height="27" fill="#82aaff"/>
<rect x="456" y="80" width="19" height="27" fill="#82aaff"/>
<rect x="476" y="80" width="19" height="27" fill="#82aaff"/>
<rect x="496" y="80" width="4" height="27" fill="#82aaff"/>
<rect x="500" y="80" width="4" height="27" fill="#82aaff"/>
<rect x="508" y="80" width="4" height="27" fill="#82aaff"/>
<rect x="512" y="80" width="4" height="27" fill="#82aaff"/>
<rect x="536" y="80" width="4" height="27" fill="#82aaff"/>
<rect x="540" y="80" width="4" height="27" fill="#82aaff"/>
<rect x="536" y="100" width="19" height="4" fill="#82aaff"/>
<rect x="536" y="104" width="19" height="4" fill="#82aaff"/>
<rect x="556" y="80" width="19" height="27" fill="#82aaff"/>
<rect x="576" y="80" width="19" height="27" fill="#82aaff"/>
<rect x="596" y="80" width="19" height="27" fill="#82aaff"/>
<rect x="616" y="80" width="4" height="27" fill="#82aaff"/>
<rect x="620" y="80" width="4" height="27" fill="#82aaff"/>
<rect x="616" y="80" width="19" height="4" fill="#82aaff"/>
<rect x="616" y="84" width="19" height="4" fill="#82aaff"/>
<rect x="648" y="80" width="4" height="27" fill="#82aaff"/>
<rect x="652" y="80" width="4" height="27" fill="#82aaff"/>
<rect x="636" y="100" width="19" height="4" fill="#82aaff"/>
<rect x="636" y="104" width="19" height="4" fill="#82aaff"/>
<rect x="36" y="108" width="19" height="27" fill="#82aaff"/>
<rect x="56" y="108" width="19" height="27" fill="#82aaff"/>
<rect x="76" y="108" width="4" height="27" fill="#82aaff"/>
<rect x="80" y="108" width="4" height="27" fill="#82aaff"/>
<rect x="76" y="108" width="19" height="4" fill="#82aaff"/>
<rect x="76" y="112" width="19" height="4" fill="#82aaff"/>
<rect x="96" y="108" width="19" height="4" fill="#82aaff"/>
<rect x="96" y="112" width="19" height="4" fill="#82aaff"/>
<rect x="96" y="128" width="19" height="4" fill="#82aaff"/>
<rect x="96" y="132" width="19" height="4" fill="#82aaff"/>
<rect x="116" y="108" width="19" height="4" fill="#82aaff"/>
<rect x="116" y="112" width="19" height="4" fill="#82aaff"/>
<rect x="116" y="128" width="19" height="4" fill="#82aaff"/>
<rect x="116" y="132" width="19" height="4" fill="#82aaff"/>
<rect x="148" y="108" width="4" height="27" fill="#82aaff"/>
<rect x="152" y="108" width="4" height="27" fill="#82aaff"/>
<rect x="136" y="128" width="19" height="4" fill="#82aaff"/>
<rect x="136" y="132" width="19" height="4" fill="#82aaff"/>
<rect x="196" y="108" width="19" height="27" fill="#82aaff"/>
<rect x="216" y="108" width="19" height="27" fill="#82aaff"/>
<rect x="236" y="108" width="4" height="27" fill="#82aaff"/>
<rect x="240" y="108" width="4" height="27" fill="#82aaff"/>
<rect x="248" y="108" width="4" height="27" fill="#82aaff"/>
<rect x="252" y="108" width="4" height="27" fill="#82aaff"/>
<rect x="356" y="108" width="4" height="27" fill="#82aaff"/>
<rect x="360" y="108" width="4" height="27" fill="#82aaff"/>
<rect x="356" y="128" width="19" height="4" fill="#82aaff"/>
<rect x="356" y="132" width="19" height="4" fill="#82aaff"/>
<rect x="376" y="108" width="19" height="4" fill="#82aaff"/>
<rect x="376" y="112" width="19" height="4" fill="#82aaff"/>
<rect x="376" y="128" width="19" height="4" fill="#82aaff"/>
<rect x="376" y="132" width="19" height="4" fill="#82aaff"/>
<rect x="396" y="108" width="19" height="4" fill="#82aaff"/>
<rect x="396" y="112" width="19" height="4" fill="#82aaff"/>
<rect x="396" y="128" width="19" height="4" fill="#82aaff"/>
<rect x="396" y="132" width="19" height="4" fill="#82aaff"/>
<rect x="416" y="108" width="19" height="4" fill="#82aaff"/>
<rect x="416" y="112" width="19" height="4" fill="#82aaff"/>
<rect x="416" y="128" width="19" height="4" fill="#82aaff"/>
<rect x="416" y="132" width="19" height="4" fill="#82aaff"/>
<rect x="436" y="108" width="19" height="4" fill="#82aaff"/>
<rect x="436" y="112" width="19" height="4" fill="#82aaff"/>
<rect x="436" y="128" width="19" height="4" fill="#82aaff"/>
<rect x="436" y="132" width="19" height="4" fill="#82aaff"/>
<rect x="456" y="108" width="19" height="27" fill="#82aaff"/>
<rect x="476" y="108" width="19" height="27" fill="#82aaff"/>
<rect x="496" y="108" width="4" height="27" fill="#82aaff"/>
<rect x="500" y="108" width="4" height="27" fill="#82aaff"/>
<rect x="508" y="108" width="4" height="27" fill="#82aaff"/>
<rect x="512" y="108" width="4" height="27" fill="#82aaff"/>
<rect x="536" y="108" width="19" height="27" fill="#82aaff"/>
<rect x="556" y="108" width="19" height="27" fill="#82aaff"/>
<rect x="576" y="108" width="4" height="27" fill="#82aaff"/>
<rect x="580" y="108" width="4" height="27" fill="#82aaff"/>
<rect x="576" y="108" width="19" height="4" fill="#82aaff"/>
<rect x="576" y="112" width="19" height="4" fill="#82aaff"/>
<rect x="596" y="108" width="19" height="27" fill="#82aaff"/>
<rect x="616" y="108" width="19" height="27" fill="#82aaff"/>
<rect x="648" y="108" width="4" height="27" fill="#82aaff"/>
<rect x="652" y="108" width="4" height="27" fill="#82aaff"/>
<rect x="636" y="108" width="19" height="4" fill="#82aaff"/>
<rect x="636" y="112" width="19" height="4" fill="#82aaff"/>
<rect x="36" y="136" width="19" height="27" fill="#82aaff"/>
<rect x="56" y="136" width="19" height="27" fill="#82aaff"/>
<rect x="76" y="136" width="19" height="27" fill="#82aaff"/>
<rect x="96" y="136" width="19" height="27" fill="#82aaff"/>
<rect x="116" y="136" width="19" height="27" fill="#82aaff"/>
<rect x="136" y="136" width="19" height="27" fill="#82aaff"/>
<rect x="156" y="136" width="19" height="27" fill="#82aaff"/>
<rect x="188" y="136" width="4" height="27" fill="#82aaff"/>
<rect x="192" y="136" width="4" height="27" fill="#82aaff"/>
<rect x="176" y="136" width="19" height="4" fill="#82aaff"/>
<rect x="176" y="140" width="19" height="4" fill="#82aaff"/>
<rect x="196" y="136" width="4" height="27" fill="#82aaff"/>
<rect x="200" y="136" width="4" height="27" fill="#82aaff"/>
<rect x="196" y="156" width="19" height="4" fill="#82aaff"/>
<rect x="196" y="160" width="19" height="4" fill="#82aaff"/>
<rect x="216" y="136" width="19" height="27" fill="#82aaff"/>
<rect x="236" y="136" width="19" height="27" fill="#82aaff"/>
<rect x="256" y="136" width="19" height="27" fill="#82aaff"/>
<rect x="276" y="136" width="19" height="27" fill="#82aaff"/>
<rect x="296" y="136" width="19" height="27" fill="#82aaff"/>
<rect x="316" y="136" width="19" height="27" fill="#82aaff"/>
<rect x="348" y="136" width="4" height="27" fill="#82aaff"/>
<rect x="352" y="136" width="4" height="27" fill="#82aaff"/>
<rect x="336" y="136" width="19" height="4" fill="#82aaff"/>
<rect x="336" y="140" width="19" height="4" fill="#82aaff"/>
<rect x="456" y="136" width="19" height="27" fill="#82aaff"/>
<rect x="476" y="136" width="19" height="27" fill="#82aaff"/>
<rect x="496" y="136" width="4" height="27" fill="#82aaff"/>
<rect x="500" y="136" width="4" height="27" fill="#82aaff"/>
<rect x="508" y="136" width="4" height="27" fill="#82aaff"/>
<rect x="512" y="136" width="4" height="27" fill="#82aaff"/>
<rect x="516" y="136" width="19" height="27" fill="#82aaff"/>
<rect x="536" y="136" width="19" height="27" fill="#82aaff"/>
<rect x="556" y="136" width="4" height="27" fill="#82aaff"/>
<rect x="560" y="136" width="4" height="27" fill="#82aaff"/>
<rect x="556" y="136" width="19" height="4" fill="#82aaff"/>
<rect x="556" y="140" width="19" height="4" fill="#82aaff"/>
<rect x="588" y="136" width="4" height="27" fill="#82aaff"/>
<rect x="592" y="136" width="4" height="27" fill="#82aaff"/>
<rect x="576" y="156" width="19" height="4" fill="#82aaff"/>
<rect x="576" y="160" width="19" height="4" fill="#82aaff"/>
<rect x="616" y="136" width="19" height="27" fill="#82aaff"/>
<rect x="636" y="136" width="19" height="27" fill="#82aaff"/>
<rect x="668" y="136" width="4" height="27" fill="#82aaff"/>
<rect x="672" y="136" width="4" height="27" fill="#82aaff"/>
<rect x="656" y="136" width="19" height="4" fill="#82aaff"/>
<rect x="656" y="140" width="19" height="4" fill="#82aaff"/>
<rect x="36" y="164" width="4" height="27" fill="#82aaff"/>
<rect x="40" y="164" width="4" height="27" fill="#82aaff"/>
<rect x="36" y="184" width="19" height="4" fill="#82aaff"/>
<rect x="36" y="188" width="19" height="4" fill="#82aaff"/>
<rect x="56" y="164" width="19" height="4" fill="#82aaff"/>
<rect x="56" y="168" width="19" height="4" fill="#82aaff"/>
<rect x="56" y="184" width="19" height="4" fill="#82aaff"/>
<rect x="56" y="188" width="19" height="4" fill="#82aaff"/>
<rect x="76" y="164" width="19" height="4" fill="#82aaff"/>
<rect x="76" y="168" width="19" height="4" fill="#82aaff"/>
<rect x="76" y="184" width="19" height="4" fill="#82aaff"/>
<rect x="76" y="188" width="19" height="4" fill="#82aaff"/>
<rect x="96" y="164" width="19" height="4" fill="#82aaff"/>
<rect x="96" y="168" width="19" height="4" fill="#82aaff"/>
<rect x="96" y="184" width="19" height="4" fill="#82aaff"/>
<rect x="96" y="188" width="19" height="4" fill="#82aaff"/>
<rect x="116" y="164" width="19" height="4" fill="#82aaff"/>
<rect x="116" y="168" width="19" height="4" fill="#82aaff"/>
<rect x="116" y="184" width="19" height="4" fill="#82aaff"/>
<rect x="116" y="188" width="19" height="4" fill="#82aaff"/>
<rect x="136" y="164" width="19" height="4" fill="#82aaff"/>
<rect x="136" y="168" width="19" height="4" fill="#82aaff"/>
<rect x="136" y="184" width="19" height="4" fill="#82aaff"/>
<rect x="136" y="188" width="19" height="4" fill="#82aaff"/>
<rect x="156" y="164" width="19" height="4" fill="#82aaff"/>
<rect x="156" y="168" width="19" height="4" fill="#82aaff"/>
<rect x="156" y="184" width="19" height="4" fill="#82aaff"/>
<rect x="156" y="188" width="19" height="4" fill="#82aaff"/>
<rect x="188" y="164" width="4" height="27" fill="#82aaff"/>
<rect x="192" y="164" width="4" height="27" fill="#82aaff"/>
<rect x="176" y="184" width="19" height="4" fill="#82aaff"/>
<rect x="176" y="188" width="19" height="4" fill="#82aaff"/>
<rect x="216" y="164" width="4" height="27" fill="#82aaff"/>
<rect x="220" y="164" width="4" height="27" fill="#82aaff"/>
<rect x="216" y="184" width="19" height="4" fill="#82aaff"/>
<rect x="216" y="188" width="19" height="4" fill="#82aaff"/>
<rect x="236" y="164" width="19" height="4" fill="#82aaff"/>
<rect x="236" y="168" width="19" height="4" fill="#82aaff"/>
<rect x="236" y="184" width="19" height="4" fill="#82aaff"/>
<rect x="236" y="188" width="19" height="4" fill="#82aaff"/>
<rect x="256" y="164" width="19" height="4" fill="#82aaff"/>
<rect x="256" y="168" width="19" height="4" fill="#82aaff"/>
<rect x="256" y="184" width="19" height="4" fill="#82aaff"/>
<rect x="256" y="188" width="19" height="4" fill="#82aaff"/>
<rect x="276" y="164" width="19" height="4" fill="#82aaff"/>
<rect x="276" y="168" width="19" height="4" fill="#82aaff"/>
<rect x="276" y="184" width="19" height="4" fill="#82aaff"/>
<rect x="276" y="188" width="19" height="4" fill="#82aaff"/>
<rect x="296" y="164" width="19" height="4" fill="#82aaff"/>
<rect x="296" y="168" width="19" height="4" fill="#82aaff"/>
<rect x="296" y="184" width="19" height="4" fill="#82aaff"/>
<rect x="296" y="188" width="19" height="4" fill="#82aaff"/>
<rect x="316" y="164" width="19" height="4" fill="#82aaff"/>
<rect x="316" y="168" width="19" height="4" fill="#82aaff"/>
<rect x="316" y="184" width="19" height="4" fill="#82aaff"/>
<rect x="316" y="188" width="19" height="4" fill="#82aaff"/>
<rect x="348" y="164" width="4" height="27" fill="#82aaff"/>
<rect x="352" y="164" width="4" height="27" fill="#82aaff"/>
<rect x="336" y="184" width="19" height="4" fill="#82aaff"/>
<rect x="336" y="188" width="19" height="4" fill="#82aaff"/>
<rect x="456" y="164" width="4" height="27" fill="#82aaff"/>
<rect x="460" y="164" width="4" height="27" fill="#82aaff"/>
<rect x="456" y="184" width="19" height="4" fill="#82aaff"/>
<rect x="456" y="188" width="19" height="4" fill="#82aaff"/>
<rect x="476" y="164" width="19" height="4" fill="#82aaff"/>
<rect x="476" y="168" width="19" height="4" fill="#82aaff"/>
<rect x="476" y="184" width="19" height="4" fill="#82aaff"/>
<rect x="476" y="188" width="19" height="4" fill="#82aaff"/>
<rect x="508" y="164" width="4" height="27" fill="#82aaff"/>
<rect x="512" y="164" width="4" height="27" fill="#82aaff"/>
<rect x="496" y="184" width="19" height="4" fill="#82aaff"/>
<rect x="496" y="188" width="19" height="4" fill="#82aaff"/>
<rect x="516" y="164" width="4" height="27" fill="#82aaff"/>
<rect x="520" y="164" width="4" height="27" fill="#82aaff"/>
<rect x="516" y="184" width="19" height="4" fill="#82aaff"/>
<rect x="516" y="188" width="19" height="4" fill="#82aaff"/>
<rect x="536" y="164" width="19" height="4" fill="#82aaff"/>
<rect x="536" y="168" width="19" height="4" fill="#82aaff"/>
<rect x="536" y="184" width="19" height="4" fill="#82aaff"/>
<rect x="536" y="188" width="19" height="4" fill="#82aaff"/>
<rect x="568" y="164" width="4" height="27" fill="#82aaff"/>
<rect x="572" y="164" width="4" height="27" fill="#82aaff"/>
<rect x="556" y="184" width="19" height="4" fill="#82aaff"/>
<rect x="556" y="188" width="19" height="4" fill="#82aaff"/>
<rect x="616" y="164" width="4" height="27" fill="#82aaff"/>
<rect x="620" y="164" width="4" height="27" fill="#82aaff"/>
<rect x="616" y="184" width="19" height="4" fill="#82aaff"/>
<rect x="616" y="188" width="19" height="4" fill="#82aaff"/>
<rect x="636" y="164" width="19" height="4" fill="#82aaff"/>
<rect x="636" y="168" width="19" height="4" fill="#82aaff"/>
<rect x="636" y="184" width="19" height="4" fill="#82aaff"/>
<rect x="636" y="188" width="19" height="4" fill="#82aaff"/>
<rect x="668" y="164" width="4" height="27" fill="#82aaff"/>
<rect x="672" y="164" width="4" height="27" fill="#82aaff"/>
<rect x="656" y="184" width="19" height="4" fill="#82aaff"/>
<rect x="656" y="188" width="19" height="4" fill="#82aaff"/>
</svg>
